<svg preserveAspectRatio="none" width="100%" height="100%" overflow="visible" style="display: block;" viewBox="0 0 40 40" fill="none" xmlns="http://www.w3.org/2000/svg">
<g id="icon-mic">
<rect width="40" height="40" rx="20" fill="var(--fill-0, #DA203D)"/>
<g id="Icon container">
<path id="Vector 3217" d="M11.3857 18.1856V24.1474" stroke="var(--stroke-0, white)" stroke-width="2.54687" stroke-linecap="round"/>
<path id="Vector 3218" d="M16.4795 11.9863L16.4795 30.3467" stroke="var(--stroke-0, white)" stroke-width="2.54687" stroke-linecap="round"/>
<path id="Vector 3219" d="M21.5732 15.8614L21.5732 26.4717" stroke="var(--stroke-0, white)" stroke-width="2.54687" stroke-linecap="round"/>
<path id="Vector 3220" d="M26.667 18.1856V24.1474" stroke="var(--stroke-0, white)" stroke-width="2.54687" stroke-linecap="round"/>
</g>
<path id="Rectangle 149" d="M26.5521 7.98351C26.5932 7.87916 26.7408 7.87916 26.7819 7.98351C27.2837 9.25965 28.2937 10.2696 29.5698 10.7715C29.6742 10.8125 29.6742 10.9602 29.5698 11.0012C28.2937 11.5031 27.2837 12.5131 26.7819 13.7892C26.7408 13.8935 26.5932 13.8935 26.5521 13.7892C26.0502 12.5131 25.0403 11.5031 23.7642 11.0012C23.6598 10.9602 23.6598 10.8125 23.7642 10.7715C25.0403 10.2696 26.0502 9.25965 26.5521 7.98351Z" fill="var(--fill-0, white)"/>
</g>
</svg>
