<svg preserveAspectRatio="none" width="100%" height="100%" overflow="visible" style="display: block;" viewBox="0 0 24 24" fill="none" xmlns="http://www.w3.org/2000/svg">
<g id="icon-loudspeaker-mono">
<path id="Ellipse 179" d="M7.22949 12.75C7.3514 16.3252 8.33121 18.9574 9.3291 20.7334C9.62573 21.2613 9.92429 21.7118 10.2002 22.0889C5.63792 21.2805 2.12081 17.4575 1.78027 12.75H7.22949ZM22.2197 12.75C21.8806 17.438 18.3912 21.2492 13.8564 22.0791C14.1184 21.7273 14.3984 21.3112 14.6768 20.8262C15.6855 19.0681 16.6717 16.4285 16.791 12.75H22.2197ZM15.2891 12.75C15.1709 16.1489 14.2624 18.5341 13.376 20.0791C13.1633 20.4497 12.9503 20.7726 12.75 21.0508V12.75H15.2891ZM11.25 12.75V20.9775C11.0533 20.6942 10.8447 20.3682 10.6367 19.998C9.7522 18.4237 8.85212 16.0412 8.73145 12.75H11.25ZM13.8564 1.91992C18.3913 2.74973 21.8806 6.56191 22.2197 11.25H16.791C16.6717 7.57154 15.6855 4.93189 14.6768 3.17383C14.3983 2.68848 14.1186 2.27184 13.8564 1.91992ZM12.75 2.94824C12.9505 3.22654 13.1632 3.55001 13.376 3.9209C14.2624 5.46592 15.1709 7.85113 15.2891 11.25H12.75V2.94824ZM11.25 11.25H8.73145C8.85212 7.95875 9.7522 5.5763 10.6367 4.00195C10.8449 3.63148 11.0531 3.30497 11.25 3.02148V11.25ZM10.2002 1.91016C9.92416 2.28737 9.6259 2.73839 9.3291 3.2666C8.33121 5.04258 7.3514 7.6748 7.22949 11.25H1.78027C2.12082 6.54243 5.63784 2.71848 10.2002 1.91016Z" stroke="var(--stroke-0, #666666)" stroke-width="1.5"/>
</g>
</svg>
