<svg preserveAspectRatio="none" width="100%" height="100%" overflow="visible" style="display: block;" viewBox="0 0 18 24" fill="none" xmlns="http://www.w3.org/2000/svg">
<g id="Group">
<path id="Vector" fill-rule="evenodd" clip-rule="evenodd" d="M8.6 0C7.40653 0 6.26193 0.474106 5.41802 1.31802C4.57411 2.16193 4.1 3.30653 4.1 4.5V10.703C4.1 11.8965 4.57411 13.0411 5.41802 13.885C6.26193 14.7289 7.40653 15.203 8.6 15.203C9.79347 15.203 10.9381 14.7289 11.782 13.885C12.6259 13.0411 13.1 11.8965 13.1 10.703V4.5C13.1 3.30653 12.6259 2.16193 11.782 1.31802C10.9381 0.474106 9.79347 0 8.6 0Z" fill="var(--fill-0, black)"/>
<path id="Vector_2" fill-rule="evenodd" clip-rule="evenodd" d="M17.201 10.703C17.201 10.4378 17.0956 10.1834 16.9081 9.99589C16.7206 9.80836 16.4662 9.703 16.201 9.703C15.9358 9.703 15.6814 9.80836 15.4939 9.99589C15.3064 10.1834 15.201 10.4378 15.201 10.703C15.1991 12.4531 14.5031 14.131 13.2656 15.3686C12.028 16.6061 10.3501 17.3021 8.6 17.304C6.85022 17.3019 5.17271 16.6058 3.93543 15.3686C2.69815 14.1313 2.00212 12.4538 2 10.704C2 10.4388 1.89464 10.1844 1.70711 9.99689C1.51957 9.80936 1.26522 9.704 1 9.704C0.734784 9.704 0.48043 9.80936 0.292893 9.99689C0.105357 10.1844 0 10.4388 0 10.704C0 15.107 3.328 18.744 7.6 19.241V22.388C7.6 22.6532 7.70536 22.9076 7.89289 23.0951C8.08043 23.2826 8.33478 23.388 8.6 23.388C8.86522 23.388 9.11957 23.2826 9.30711 23.0951C9.49464 22.9076 9.6 22.6532 9.6 22.388V19.241C13.873 18.743 17.201 15.107 17.201 10.703" fill="var(--fill-0, black)"/>
</g>
</svg>
